<svg width="12" height="12" viewBox="0 0 12 12" fill="none" xmlns="http://www.w3.org/2000/svg">
<g id="icon">
<path id="Vector" d="M8.11755 1.4119C7.72768 1.4119 7.41152 1.09574 7.41152 0.705874C7.41152 0.316157 7.72768 0 8.11755 0H11.2941C11.6837 0 12 0.316457 12 0.705874V3.8826C12 4.27232 11.6838 4.58848 11.2941 4.58848C10.9044 4.58848 10.5883 4.27232 10.5883 3.8826V2.40991L6.49908 6.49908C6.22346 6.77455 5.77654 6.77455 5.50092 6.49908C5.22545 6.22346 5.22545 5.77654 5.50092 5.50092L9.59009 1.4119H8.11755ZM10.5883 6.70595C10.5883 6.31608 10.9044 6.00007 11.2941 6.00007C11.6838 6.00007 12 6.31608 12 6.70595V11.2941C12 11.6838 11.6838 12 11.2941 12H0.705874C0.316157 12 0 11.6838 0 11.2941V0.705874C0 0.316157 0.316157 0 0.705874 0H5.29405C5.68392 0 6.00007 0.316157 6.00007 0.705874C6.00007 1.09574 5.68392 1.4119 5.29405 1.4119H1.4119V10.5883H10.5883V6.70595Z" fill="#32324D"/>
</g>
</svg>
