<svg width="159" height="88" viewBox="0 0 159 88" fill="none" xmlns="http://www.w3.org/2000/svg">
<g id="EmptyDocuments" opacity="0.84">
<path id="Background" fill-rule="evenodd" clip-rule="evenodd" d="M138.783 14.407C141.855 14.407 144.344 16.8968 144.344 19.9681C144.344 23.0394 141.855 25.5292 138.783 25.5292H107.005C110.077 25.5292 112.567 28.019 112.567 31.0903C112.567 34.1616 110.077 36.6514 107.005 36.6514H124.483C127.555 36.6514 130.044 39.1412 130.044 42.2125C130.044 45.2839 127.555 47.7737 124.483 47.7737H116.401C112.528 47.7737 109.389 50.2635 109.389 53.3348C109.389 54.5054 109.908 55.6127 110.947 56.6566C112.766 58.4852 115.802 58.5507 117.764 60.2255C118.959 61.2455 119.717 62.7628 119.717 64.457C119.717 67.5283 117.227 70.0181 114.155 70.0181H48.2166C45.1453 70.0181 42.6555 67.5283 42.6555 64.457C42.6555 61.3857 45.1453 58.8959 48.2166 58.8959H17.2332C14.1619 58.8959 11.6721 56.4061 11.6721 53.3348C11.6721 50.2635 14.1619 47.7737 17.2332 47.7737H49.011C52.0823 47.7737 54.5721 45.2839 54.5721 42.2125C54.5721 39.1412 52.0823 36.6514 49.011 36.6514H29.1499C26.0786 36.6514 23.5888 34.1616 23.5888 31.0903C23.5888 28.019 26.0786 25.5292 29.1499 25.5292H60.9277C57.8564 25.5292 55.3666 23.0394 55.3666 19.9681C55.3666 16.8968 57.8564 14.407 60.9277 14.407H138.783ZM138.783 36.6514C141.855 36.6514 144.344 39.1412 144.344 42.2125C144.344 45.2839 141.855 47.7737 138.783 47.7737C135.712 47.7737 133.222 45.2839 133.222 42.2125C133.222 39.1412 135.712 36.6514 138.783 36.6514Z" fill="#D9D8FF" fill-opacity="0.8"/>
<g id="Shape">
<path fill-rule="evenodd" clip-rule="evenodd" d="M97.2113 14.4071L104.601 68.3044L105.265 73.7116C105.479 75.4536 104.24 77.0391 102.498 77.253L55.9754 82.9653C54.2335 83.1792 52.6479 81.9404 52.434 80.1985L45.2715 21.8644C45.1646 20.9934 45.7839 20.2007 46.6549 20.0937C46.6604 20.093 46.6659 20.0924 46.6714 20.0917L50.5311 19.6588L97.2113 14.4071ZM53.6521 19.3087L57.2963 18.8999L53.6521 19.3087Z" fill="white"/>
<path d="M53.6521 19.3087L57.2963 18.8999M97.2113 14.4071L104.601 68.3044L105.265 73.7116C105.479 75.4536 104.24 77.0391 102.498 77.253L55.9754 82.9653C54.2335 83.1792 52.6479 81.9404 52.434 80.1985L45.2715 21.8644C45.1646 20.9934 45.7839 20.2007 46.6549 20.0937C46.6604 20.093 46.6659 20.0924 46.6714 20.0917L50.5311 19.6588L97.2113 14.4071Z" stroke="#7B79FF" stroke-width="2.5"/>
</g>
<path id="Rectangle" fill-rule="evenodd" clip-rule="evenodd" d="M95.2002 17.7985L101.889 66.6439L102.491 71.5442C102.685 73.1229 101.577 74.5579 100.017 74.7494L58.3549 79.8649C56.7949 80.0564 55.3732 78.932 55.1794 77.3533L48.7046 24.6209C48.5977 23.7499 49.2171 22.9571 50.088 22.8502L55.2421 22.2173" fill="#F0F0FF"/>
<path id="Rectangle_2" fill-rule="evenodd" clip-rule="evenodd" d="M99.2428 4.27783H63.0504C62.4472 4.27783 61.901 4.52237 61.5056 4.91772C61.1103 5.31308 60.8657 5.85926 60.8657 6.46255V66.8403C60.8657 67.4436 61.1103 67.9898 61.5056 68.3852C61.901 68.7805 62.4472 69.0251 63.0504 69.0251H109.923C110.526 69.0251 111.072 68.7805 111.468 68.3852C111.863 67.9898 112.107 67.4436 112.107 66.8403V17.1359C112.107 16.5562 111.877 16.0003 111.467 15.5905L100.787 4.91724C100.377 4.50782 99.822 4.27783 99.2428 4.27783Z" fill="white" stroke="#7B79FF" stroke-width="2.5"/>
<path id="Shape_2" d="M99.5947 5.19373V14.407C99.5947 15.7233 100.662 16.7904 101.978 16.7904H108.281" stroke="#7B79FF" stroke-width="2.5" stroke-linecap="round" stroke-linejoin="round"/>
<path id="lines" d="M69.406 57.3069H90.0616M69.406 16.7903H90.0616H69.406ZM69.406 26.3236H103.567H69.406ZM69.406 36.6514H103.567H69.406ZM69.406 46.9792H103.567H69.406Z" stroke="#7B79FF" stroke-width="2.5" stroke-linecap="round" stroke-linejoin="round"/>
</g>
</svg>
